<svg version="1.1" xmlns="http://www.w3.org/2000/svg" xmlns:xlink="http://www.w3.org/1999/xlink" width="476.41346" height="274.16047" viewBox="0,0,476.41346,274.16047"><g transform="translate(-2.79991,-8.40234)"><g data-paper-data="{&quot;isPaintingLayer&quot;:true}" fill-rule="nonzero" stroke-linejoin="miter" stroke-miterlimit="10" stroke-dasharray="" stroke-dashoffset="0" style="mix-blend-mode: normal"><text transform="translate(3.04272,276.70839) scale(0.48562,0.48562)" font-size="40" xml:space="preserve" fill="#000000" fill-rule="nonzero" stroke="none" stroke-width="1" stroke-linecap="butt" stroke-linejoin="miter" stroke-miterlimit="10" stroke-dasharray="" stroke-dashoffset="0" font-family="Sans Serif" font-weight="normal" text-anchor="start" style="mix-blend-mode: normal"><tspan x="0" dy="0">There was Republic of Scratch in Scratch a long ago</tspan></text><path d="M276.08545,224.67119c0,0 -0.19119,-0.16093 0.24161,-1.07673c5.14684,-10.8908 38.44433,-81.34884 41.56056,-87.94285c0.46069,-0.97483 0.7982,-1.07842 0.7982,-1.07842c0,0 0.43435,-0.37184 1.04276,-0.08432c3.43307,1.62242 34.4056,16.25961 41.50114,19.61286c0.92458,0.43694 0.84456,0.89689 0.84456,0.89689c0,0 0.39881,0.20939 0.09663,0.8488c-2.52218,5.33698 -35.47757,75.07113 -41.55116,87.92296c-0.61889,1.30958 -0.79867,1.44705 -0.79867,1.44705c0,0 -0.59864,0.37419 -1.3879,0.0012c-6.76821,-3.19856 -39.31896,-18.58159 -42.12949,-19.90981c-0.38224,-0.18064 -0.21823,-0.63762 -0.21823,-0.63762z" fill="#dcaa00" stroke="#000000" stroke-width="2" stroke-linecap="butt"/><path d="M291.08966,192.9769l-37.03199,-0.06613c0,0 3.61617,-0.914 8.14817,-3.20447c1.70447,-0.86143 4.21411,-1.74073 5.85065,-3.03822c5.48792,-4.35095 9.44474,-10.88241 11.41987,-15.10318c1.70269,-3.63856 3.5171,-10.31748 3.52941,-15.93573c0.01984,-9.05642 -4.21248,-17.40963 -4.21248,-17.40963l24.13621,29.16395z" data-paper-data="{&quot;index&quot;:null}" fill="#dcaa00" stroke="#000000" stroke-width="2" stroke-linecap="round"/><path d="M279.25973,172.14087c-12.27084,25.9653 -59.24958,29.51386 -104.92995,7.92596c-45.68037,-21.58791 -72.76416,-60.13739 -60.49333,-86.10269c12.27084,-25.9653 59.24958,-29.51386 104.92995,-7.92596c45.68037,21.58791 72.76416,60.13739 60.49333,86.10269z" fill="#dcaa00" stroke="#000000" stroke-width="2" stroke-linecap="butt"/><path d="M134.29062,152.53689l35.58048,-79.58247c0,0 9.78139,0.93342 13.2631,1.33518c0.89653,0.10345 1.98887,0.39471 3.10303,0.60391c1.00241,0.18822 2.01934,0.27769 2.98083,0.65821c2.59501,1.02699 5.01946,1.95416 5.01946,1.95416c0,0 -15.36562,32.51391 -22.76404,48.16909c-7.03772,14.89194 -18.25741,41.90312 -18.25741,41.90312c0,0 -7.90874,-4.6099 -10.72422,-7.44923c-2.7085,-2.73145 -8.20124,-7.59197 -8.20124,-7.59197z" fill="#000000" stroke="#000000" stroke-width="2" stroke-linecap="butt"/><text transform="translate(154.49097,118.69904) rotate(25.29476) scale(0.59663,0.5) skewX(0)" font-size="40" xml:space="preserve" fill="#48a900" fill-rule="nonzero" stroke="none" stroke-width="1" stroke-linecap="butt" stroke-linejoin="miter" stroke-miterlimit="10" stroke-dasharray="" stroke-dashoffset="0" font-family="Marker" font-weight="normal" text-anchor="start" style="mix-blend-mode: normal"><tspan x="0" dy="0">R</tspan></text><path d="M169.30971,177.36788l44.5756,-94.32272l26.07449,15.18149l-42.50816,90.46361z" fill="#000000" stroke="none" stroke-width="0" stroke-linecap="butt"/><path d="M223.02622,193.13345l37.56422,-77.01346l15.75657,20.30058c0,0 0.03645,0.3433 -0.28487,1.06549c-2.13026,4.78801 -24.29252,54.222 -24.29252,54.222z" fill="#000000" stroke="#000000" stroke-width="2" stroke-linecap="butt"/><text transform="translate(192.80359,136.86496) rotate(25.29476) scale(0.59663,0.5) skewX(0)" font-size="40" xml:space="preserve" fill="#48a900" fill-rule="nonzero" stroke="none" stroke-width="1" stroke-linecap="butt" stroke-linejoin="miter" stroke-miterlimit="10" stroke-dasharray="" stroke-dashoffset="0" font-family="Marker" font-weight="normal" text-anchor="start" style="mix-blend-mode: normal"><tspan x="0" dy="0">O</tspan></text><text transform="translate(242.81113,162.22963) rotate(25.29476) scale(0.59663,0.5) skewX(0)" font-size="40" xml:space="preserve" fill="#48a900" fill-rule="nonzero" stroke="none" stroke-width="1" stroke-linecap="butt" stroke-linejoin="miter" stroke-miterlimit="10" stroke-dasharray="" stroke-dashoffset="0" font-family="Marker" font-weight="normal" text-anchor="start" style="mix-blend-mode: normal"><tspan x="0" dy="0">S</tspan></text><text transform="translate(314.91684,215.41237) rotate(-64.41188) scale(0.5,0.5)" font-size="40" xml:space="preserve" fill="#48a900" fill-rule="nonzero" stroke="none" stroke-width="1" stroke-linecap="butt" stroke-linejoin="miter" stroke-miterlimit="10" stroke-dasharray="" stroke-dashoffset="0" font-family="Marker" font-weight="normal" text-anchor="start" style="mix-blend-mode: normal"><tspan x="0" dy="0">NUKE</tspan></text><path d="M222.28441,9.40234l-9.39536,47.83093" fill="none" stroke="#000000" stroke-width="2" stroke-linecap="round"/><path d="M281.21895,18.7977l-27.33196,59.78866" fill="none" stroke="#000000" stroke-width="2" stroke-linecap="round"/><path d="M367.48545,47.83791l-30.74846,68.3299" fill="none" stroke="#000000" stroke-width="2" stroke-linecap="round"/><path d="M163.34987,15.38121l-21.35309,33.31083" fill="none" stroke="#000000" stroke-width="2" stroke-linecap="round"/></g></g></svg>